<?xml version="1.0" encoding="UTF-8" standalone="no"?>
<!-- Created with Inkscape (http://www.inkscape.org/) -->

<svg
   width="60mm"
   height="60mm"
   viewBox="0 0 60 60"
   version="1.1"
   id="svg1"
   xml:space="preserve"
   xmlns="http://www.w3.org/2000/svg"
   xmlns:svg="http://www.w3.org/2000/svg"><defs
     id="defs1" /><g
     id="layer1"
     transform="translate(-152.69772,-33.349644)"><path
       style="fill:#000000"
       d="M 161.93994,79.740689 V 67.407227 l 1.71784,1.606954 c 2.54868,2.384163 6.91525,4.250544 9.98997,4.269958 l 0.72761,0.0046 V 77.2019 c 0,5.804163 -0.83515,8.3414 -3.683,11.189256 -2.10759,2.107583 -5.53571,3.683 -8.01426,3.683 h -0.73816 z m 29.36875,1.122756 V 69.584566 h -8.81495 c -5.24424,0 -9.45089,-0.117172 -10.3849,-0.28926 -4.32452,-0.796786 -7.828,-3.805243 -9.44631,-8.111598 -0.53493,-1.423444 -0.5722,-1.99626 -0.58095,-8.929351 -0.008,-6.665361 0.0428,-7.567541 0.51063,-8.995833 1.46124,-4.461162 5.61644,-7.889453 10.26644,-8.470432 l 1.51671,-0.189499 v 11.275278 11.275278 h 8.98281 c 5.67537,0 9.49905,0.11011 10.38489,0.299051 4.33742,0.925126 7.67293,3.837147 9.28005,8.101807 0.53718,1.425479 0.57367,1.986351 0.58094,8.929351 0.007,7.109591 -0.0174,7.481311 -0.61704,9.218051 -1.54263,4.468219 -5.50732,7.626302 -10.38674,8.273579 l -1.29158,0.171335 z m 10.66705,-23.188482 c -2.50157,-2.351425 -6.86405,-4.205968 -9.93945,-4.225386 l -0.7276,-0.0046 v -3.913161 c 0,-4.269956 0.30745,-5.992678 1.48378,-8.314065 0.99743,-1.968326 3.42873,-4.291897 5.50997,-5.265826 1.64099,-0.767913 4.99648,-1.561158 5.30381,-1.253831 0.0787,0.07876 0.11222,5.62679 0.0744,12.328962 l -0.0688,12.185767 z"
       id="path1" /></g></svg>
