<?xml version="1.0" encoding="UTF-8" standalone="no"?>
<!-- Created with Inkscape (http://www.inkscape.org/) -->

<svg
   width="250mm"
   height="250mm"
   viewBox="0 0 250 250"
   version="1.1"
   id="svg1"
   xml:space="preserve"
   xmlns="http://www.w3.org/2000/svg"
   xmlns:svg="http://www.w3.org/2000/svg"><defs
     id="defs1" /><g
     id="layer1"
     transform="translate(-1.2978405,-28.464229)"><path
       style="fill:#000000"
       d="M 88.074431,233.34936 V 192.8681 h 9.789583 9.789586 v 40.48126 40.48125 h -9.789586 -9.789583 z m 31.485419,-5.55625 V 181.7556 h -18.26668 c -11.006671,0 -19.28782,-0.11089 -20.835939,-0.279 -21.173474,-2.29933 -39.046029,-15.62836 -46.455911,-34.646 -1.340433,-3.44025 -2.59811,-7.94344 -3.253111,-11.64796 -0.400296,-2.26397 -0.452612,-6.82658 -0.539182,-47.023386 l -0.09587,-44.516151 h 3.28802 c 11.441846,0 21.989973,3.129799 30.993046,9.196136 11.091047,7.473229 18.557374,18.08319 21.844119,31.041401 1.652256,6.514134 1.632341,6.189674 1.756772,28.62027 l 0.114118,20.57136 h 39.139278 39.13926 l 2.67561,-1.20252 c 12.72775,-5.72031 22.88251,-12.54723 32.89046,-22.11184 5.34229,-5.10564 12.19217,-13.307626 16.07773,-19.251356 l 1.27619,-1.95218 -0.005,21.531346 c -0.004,17.47059 -0.0779,22.04549 -0.39236,24.2575 -1.7533,12.33433 -7.34965,23.4152 -15.93515,31.55182 -2.53264,2.40023 -7.0753,5.87166 -9.99368,7.63701 -6.37395,3.85566 -14.37889,6.69324 -22.16555,7.85722 l -3.10216,0.46372 v 20.93973 c 0,12.81093 -0.10928,22.06172 -0.28149,23.82995 -2.09217,21.4813 -18.46945,40.49853 -39.406,45.75811 -2.32761,0.58473 -7.14107,1.44983 -8.06695,1.44983 -0.35504,0 -0.39972,-5.14587 -0.39972,-46.0375 z m 38.96321,-120.84845 c 0.0926,-12.496546 0.18689,-15.481086 0.56218,-17.793226 2.29481,-14.138306 7.7411,-25.129224 17.35619,-35.025751 11.94514,-12.294794 26.47088,-19.439892 42.40091,-20.856675 1.85529,-0.165006 3.45281,-0.220461 3.55004,-0.123234 0.36231,0.362317 -0.44107,11.791668 -1.10387,15.704208 -3.16504,18.683263 -12.34095,35.939536 -26.70595,50.223332 -9.78586,9.730536 -20.94768,17.112186 -32.80495,21.694926 -1.69562,0.65534 -3.14659,1.19153 -3.22437,1.19153 -0.0778,0 -0.0914,-6.7568 -0.0302,-15.01511 z"
       id="path1" /></g></svg>
